<svg width="64" height="64" viewBox="0 0 64 64" fill="none" xmlns="http://www.w3.org/2000/svg">
  <defs>
    <linearGradient id="grad" x1="0%" y1="0%" x2="100%" y2="100%">
      <stop offset="0%" style="stop-color:#0066FF;stop-opacity:1" />
      <stop offset="100%" style="stop-color:#00B8D4;stop-opacity:1" />
    </linearGradient>
  </defs>
  <rect width="64" height="64" rx="16" fill="url(#grad)"/>
  <path d="M32 16C23.163 16 16 23.163 16 32V40C16 41.105 16.895 42 18 42H46C47.105 42 48 41.105 48 40V32C48 23.163 40.837 16 32 16Z" fill="white"/>
  <path d="M16 44C16 42.895 16.895 42 18 42H46C47.105 42 48 42.895 48 44V48C48 49.657 46.657 51 45 51H19C17.343 51 16 49.657 16 48V44Z" fill="white"/>
  <circle cx="32" cy="30" r="4" fill="url(#grad)"/>
</svg>
